<svg xmlns="http://www.w3.org/2000/svg" height="800" width="1200" viewBox="-8.83785 -3.403925 76.5947 20.42355"><path d="M12.4998 13.6156l1.102-7.8355-7.5295 7.8355" fill="#be210c"/><path d="M15.0819 0c-1.4391 0-2.4402.371-3.7311 1.7773L0 13.6156h4.3223L15.5174 1.9573l-1.6385 11.6583h3.3194L19.1083 0m16.7318 11.7822c-.1691-.1278-.2553-.3194-.2553-.576 0-.6058.3693-1.0576 1.0819-1.18.1462-.0248.4744-.0396.6548-.0396h.9541l-.2788 1.9901h-1.3975c-.3424 0-.5856-.0639-.7592-.1945m-.7-6.3614l-1.0254 1.6724h3.5979c.6926 0 .8712.2115.8712.6036 0 .1172-.018.27-.043.4317-.01.0402-.018.1158-.033.2189h-1.4807c-1.5334 0-2.521.1948-3.3025.99-.4427.4512-.7745 1.2221-.7745 2.202 0 .7596.3227 1.3452.8843 1.6834.3738.2255 1.061.3928 2.0596.3928h4.785l.6721-4.78c.06-.4303.1257-.8628.1257-1.4392 0-.6738-.3121-1.3222-1.1451-1.682-.4645-.2-1.0932-.2936-1.9149-.2936zm18.1429 6.3614c-.1698-.1277-.2552-.3194-.2552-.576 0-.6058.3692-1.0576 1.0819-1.18.1458-.0248.4744-.0396.6544-.0396h.9538l-.2781 1.9902h-1.3975c-.3435 0-.5856-.064-.7593-.1945m-1.3734-6.3615l-.2348 1.6724h3.4808c.6918 0 .8708.2115.8708.6036 0 .1172-.018.27-.043.4317-.01.0402-.018.1158-.033.2189h-1.4807c-1.5338 0-2.5214.1948-3.3025.9901-.443.4511-.7745 1.222-.7745 2.202 0 .7595.323 1.3451.8835 1.6833.3742.2255 1.0614.3929 2.0597.3929h4.7857l.6714-4.7801c.061-.4303.126-.8627.126-1.4391 0-.6739-.3117-1.3223-1.1454-1.682-.4638-.2001-1.0925-.2937-1.9143-.2937zm-27.8687-.0003l-1.1521 8.1952h2.91l1.1514-8.1952zm23.4006 0l-1.1518 8.1952h2.9104l1.1514-8.1952zM20.0233 3.4138l-1.4339 10.2019h2.9097l1.4338-10.202zm4.2996 0l-.198 1.4041h2.9104l.1973-1.4041zm4.2789 0L27.54 10.9813c-.059.4222-.094.7494-.094.9573 0 .3089.024.456.073.641.1941.7473.7706 1.036 1.6491 1.036h2.7907l.2517-1.6724h-1.1507c-.4829 0-.6587-.1542-.6587-.4712 0-.0995.011-.2344.036-.4063l.5581-3.9725h1.9781l1.0247-1.6724h-2.7681l.2821-2.007zm14.839 0l-1.4341 10.2019h2.9103l1.4342-10.202zm4.2828 0l-.1977 1.4041h2.9103l.1977-1.4041" fill="#00663f"/></svg>