<svg xmlns="http://www.w3.org/2000/svg" height="800" width="1200" viewBox="-20.56974 -7.86475 178.27108 47.1885"><g fill="#ffd50a"><path d="M33.124 25.5058c.1058.1323.291-.0265.2116-.1587L21.1118 4.1804 18.81.1852C18.704.0265 18.5454 0 18.466 0c-.0794 0-.2381.0529-.291.2381l-3.3338 11.1125c-.5291 1.7463.7938 3.4925 2.593 3.4925h3.3337c1.9314 0 3.7835.8467 5.0535 2.3019z"/><path d="M12.5393 12.065l2.593-8.6519c.0529-.1587-.1588-.2381-.2382-.1058L.0511 28.9983c-.106.1853-.0265.3175.0528.397.0794.0793.2117.1587.397.0793l.0528-.0265L13.73 24.6062c1.5875-.582 2.249-2.4341 1.4023-3.8893l-1.9844-3.3867c-.8996-1.5875-1.1377-3.4925-.6085-5.2652"/><path d="M30.9543 31.4325h3.9423c.1852 0 .291-.1323.3175-.2117.0265-.0794.0794-.2116-.0529-.3704l-9.9219-11.3506c-1.217-1.4023-3.466-1.1906-4.392.4233l-1.8786 3.2809c-.7937 1.3493-2.0108 2.3812-3.4925 2.9368L1.6914 31.1944c-.1323.0529-.1058.2646.053.2646zm69.215-5.0535c-5.8737 0-10.6627-4.789-10.6627-10.6627 0-5.8738 4.789-10.6627 10.6627-10.6627 5.8738 0 10.6628 4.7889 10.6628 10.6627 0 5.8737-4.789 10.6627-10.6628 10.6627m0-23.0717c-6.8262 0-12.409 5.5563-12.409 12.409 0 6.8262 5.5563 12.3825 12.409 12.3825 6.8263 0 12.409-5.5563 12.409-12.3825-.0265-6.8527-5.5827-12.409-12.409-12.409m-23.495 13.4673c.2117 0 .4234.1058.5557.291l7.0379 10.4246h2.0902l-7.673-11.4035c-.1587-.2646-.1587-.5821 0-.8202l7.673-11.4036h-2.0902l-7.038 10.4246c-.1322.1852-.3174.291-.5556.291-.2116 0-.4233-.1058-.5556-.291L69.0808 3.8894h-2.0902l7.673 11.4035c.1587.2646.1587.5821 0 .8202l-7.673 11.4036h2.0902l7.038-10.4246c.1058-.1852.3174-.3175.5555-.3175m60.4573 10.7421V3.8894h-1.7198v21.0079l-15.3722-20.373a1.9385 1.9385 0 00-1.7463-.7143c-.979.1058-1.7198.979-1.7198 1.9844V27.543h1.7198V5.8473c0-.2646.3175-.3704.4763-.1587l16.4835 21.828zM53.1793 6.1913c.1853 0 .3705.1058.4498.291l9.3398 21.0344h1.8786L54.8462 5.027c-.291-.688-.9525-1.1377-1.6933-1.1377s-1.4023.4498-1.6669 1.1112l-10.0012 22.516h1.8785l2.884-6.4822h12.2766c.1323 0 .2382-.0794.291-.1852l.5822-1.2965H46.9087l5.8209-13.0704c.0793-.1852.238-.291.4497-.291z"/></g></svg>